<svg xmlns="http://www.w3.org/2000/svg" viewBox="0 0 42.98 43.46"><defs><style>.cls-1{fill:#3fbcd5;fill-rule:evenodd;}</style></defs><title>Ресурс 1</title><g id="Слой_2" data-name="Слой 2"><g id="Слой_1-2" data-name="Слой 1"><path class="cls-1" d="M31.75,27.24,43,22,32.06,16.93a12.62,12.62,0,0,0-1.4-2.55l1.5-4-3.93,1.47a11.83,11.83,0,0,0-2.14-1.34L21.3,0,16.7,10.09a11.93,11.93,0,0,0-2.63,1.42L10,10,11.46,14a12.19,12.19,0,0,0-1.83,3.32L0,22l9.73,4.37a12.3,12.3,0,0,0,1.61,2.91L10,33l3.7-1.38a12.22,12.22,0,0,0,3,1.72l4.6,10.09L26.09,33a11.75,11.75,0,0,0,2.53-1.66l3.54,1.33-1.38-3.71A12.65,12.65,0,0,0,31.75,27.24Zm-5.21-8.39a.58.58,0,0,1-.19,0l-.16,0a.24.24,0,0,1-.13-.13,7.89,7.89,0,0,0-.4-.82,2.11,2.11,0,0,0-.46-.58,1.65,1.65,0,0,0-.63-.33,3,3,0,0,0-.92-.12H21.79v9.94a.64.64,0,0,0,.34.6,3.58,3.58,0,0,0,1.16.27c.13,0,.2.1.2.3a1.31,1.31,0,0,1,0,.31l-1.22-.06c-.42,0-.86,0-1.29,0l-1.29,0-1.24.06a1.31,1.31,0,0,1,0-.31q0-.27.18-.3a4.31,4.31,0,0,0,1.18-.28.6.6,0,0,0,.36-.59V16.87H18.23a3.07,3.07,0,0,0-.92.12,1.77,1.77,0,0,0-.64.33,2,2,0,0,0-.47.58c-.13.23-.27.51-.41.82a.3.3,0,0,1-.12.13l-.16,0a.51.51,0,0,1-.34-.11c.12-.45.21-.84.27-1.19s.12-.63.17-.86a2,2,0,0,1,.15-.53A.26.26,0,0,1,16,16l.36,0,.5,0,.53,0a4.52,4.52,0,0,0,.51,0h6a4.27,4.27,0,0,0,.49,0l.54,0,.5,0,.37,0a.27.27,0,0,1,.26.2,2.75,2.75,0,0,1,.16.54c0,.24.1.53.15.88a7.62,7.62,0,0,0,.28,1.15Z"/></g></g></svg>