<svg xmlns="http://www.w3.org/2000/svg" viewBox="0 0 25 14.5"><defs><style>.cls-1{fill:#989898;}</style></defs><title>Ресурс 1</title><g id="Слой_2" data-name="Слой 2"><g id="Слой_1-2" data-name="Слой 1"><path class="cls-1" d="M23.23,5.71,19,1.36a3,3,0,0,0-5.38.81,1.23,1.23,0,0,1-1.07.58,1.52,1.52,0,0,1-1.2-.61A3,3,0,0,0,6,1.33L1.79,5.7a5,5,0,1,0,8.15,4.36h0c.27-1.75,1.1-2.6,2.47-2.56s2.24.89,2.62,2.53a5,5,0,1,0,8.18-4.32ZM5,13.47a4,4,0,1,1,4-4A4,4,0,0,1,5,13.47Zm15,0a4,4,0,1,1,4-4A4,4,0,0,1,20,13.47Z"/><path class="cls-1" d="M17.33,9.93a.43.43,0,0,1-.44-.44,3.16,3.16,0,0,1,4.86-2.65.44.44,0,1,1-.48.73,2.28,2.28,0,0,0-3.5,1.92A.44.44,0,0,1,17.33,9.93Z"/><path class="cls-1" d="M2.3,9.93a.43.43,0,0,1-.44-.44A3.15,3.15,0,0,1,5,6.34a3.08,3.08,0,0,1,1.7.5.43.43,0,1,1-.47.73,2.28,2.28,0,0,0-3.5,1.92A.44.44,0,0,1,2.3,9.93Z"/></g></g></svg>