<svg xmlns="http://www.w3.org/2000/svg" viewBox="0 0 18.13 18.13"><defs><style>.cls-1{fill:#ededed;fill-rule:evenodd;}</style></defs><title>Ресурс 5</title><g id="Слой_2" data-name="Слой 2"><g id="Слой_1-2" data-name="Слой 1"><path class="cls-1" d="M16.23,7.85a8.71,8.71,0,0,0-.33-1.24c.54-.27,1.08-.54,1.61-.84a9.05,9.05,0,0,0-1.92-3c-.49.37-1,.74-1.43,1.12a7.07,7.07,0,0,0-.89-.75l-.54-.35-.57-.3c.2-.57.38-1.15.55-1.72A8.86,8.86,0,0,0,9.23,0C9.14.6,9.07,1.2,9,1.8a7.46,7.46,0,0,0-1.16.1,8.71,8.71,0,0,0-1.24.33c-.27-.55-.54-1.09-.84-1.62a9.05,9.05,0,0,0-3,1.92c.37.49.74,1,1.12,1.44a7.07,7.07,0,0,0-.75.89l-.35.54c-.11.18-.2.38-.3.57-.57-.2-1.15-.39-1.72-.56A8.94,8.94,0,0,0,0,8.89c.6.09,1.2.17,1.8.23a7.57,7.57,0,0,0,.1,1.16,8.71,8.71,0,0,0,.33,1.24c-.55.26-1.09.54-1.62.83a9,9,0,0,0,1.92,3C3,15,3.5,14.62,4,14.23a8.11,8.11,0,0,0,.89.76l.54.35.57.29c-.2.58-.39,1.15-.56,1.73a9.32,9.32,0,0,0,3.48.77c.09-.61.17-1.21.23-1.81a9.06,9.06,0,0,0,1.16-.09,8.71,8.71,0,0,0,1.24-.33c.26.54.54,1.08.83,1.61a9,9,0,0,0,3-1.92c-.36-.49-.73-1-1.12-1.43a8.11,8.11,0,0,0,.76-.89l.34-.54c.11-.19.2-.38.3-.57.57.2,1.15.38,1.73.55a9,9,0,0,0,.76-3.48c-.6-.09-1.2-.16-1.8-.22A8.92,8.92,0,0,0,16.23,7.85ZM9.06,12A2.95,2.95,0,1,1,12,9.06,2.95,2.95,0,0,1,9.06,12"/></g></g></svg>