<svg xmlns="http://www.w3.org/2000/svg" viewBox="0 0 16.36 18"><defs><style>.cls-1{fill:#ededed;}</style></defs><title>Ресурс 6</title><g id="Слой_2" data-name="Слой 2"><g id="Слой_1-2" data-name="Слой 1"><path class="cls-1" d="M16.36,4.13V15a3,3,0,0,1-3,3H8a3,3,0,0,1-2.12-.89L0,11.12l1-.94A.86.86,0,0,1,1.55,10a.84.84,0,0,1,.45.12s3.21,1.84,3.21,1.84V3A1.12,1.12,0,1,1,7.44,3V8.25h.74V1.12a1.12,1.12,0,1,1,2.23,0V8.25h.75V1.88a1.12,1.12,0,1,1,2.23,0V8.25h.74V4.13a1.12,1.12,0,1,1,2.23,0Z"/></g></g></svg>